<svg width="155" height="98" viewBox="0 0 155 98" fill="none" xmlns="http://www.w3.org/2000/svg">
<path d="M27.12 78.96C22.5333 78.96 18.4267 77.84 14.8 75.6C11.1733 73.3067 8.32 70 6.24 65.68C4.16 61.36 3.12 56.1333 3.12 50C3.12 43.8667 4.16 38.64 6.24 34.32C8.32 30 11.1733 26.72 14.8 24.48C18.4267 22.1867 22.5333 21.04 27.12 21.04C31.76 21.04 35.8667 22.1867 39.44 24.48C43.0667 26.72 45.92 30 48 34.32C50.08 38.64 51.12 43.8667 51.12 50C51.12 56.1333 50.08 61.36 48 65.68C45.92 70 43.0667 73.3067 39.44 75.6C35.8667 77.84 31.76 78.96 27.12 78.96ZM27.12 68C29.3067 68 31.2 67.3867 32.8 66.16C34.4533 64.9333 35.7333 62.9867 36.64 60.32C37.6 57.6533 38.08 54.2133 38.08 50C38.08 45.7867 37.6 42.3467 36.64 39.68C35.7333 37.0133 34.4533 35.0667 32.8 33.84C31.2 32.6133 29.3067 32 27.12 32C24.9867 32 23.0933 32.6133 21.44 33.84C19.84 35.0667 18.56 37.0133 17.6 39.68C16.6933 42.3467 16.24 45.7867 16.24 50C16.24 54.2133 16.6933 57.6533 17.6 60.32C18.56 62.9867 19.84 64.9333 21.44 66.16C23.0933 67.3867 24.9867 68 27.12 68ZM74.7956 78.96C70.9023 78.96 67.0356 78.4533 63.1956 77.44C59.3556 76.3733 56.1023 74.88 53.4356 72.96L58.4756 63.04C60.609 64.5867 63.089 65.8133 65.9156 66.72C68.7423 67.6267 71.5956 68.08 74.4756 68.08C77.729 68.08 80.289 67.44 82.1556 66.16C84.0223 64.88 84.9556 63.12 84.9556 60.88C84.9556 58.7467 84.129 57.0667 82.4756 55.84C80.8223 54.6133 78.1556 54 74.4756 54H68.5556V45.44L84.1556 27.76L85.5956 32.4H56.2356V22H95.4356V30.4L79.9156 48.08L73.3556 44.32H77.1156C83.9956 44.32 89.1956 45.8667 92.7156 48.96C96.2356 52.0533 97.9956 56.0267 97.9956 60.88C97.9956 64.0267 97.169 66.9867 95.5156 69.76C93.8623 72.48 91.329 74.6933 87.9156 76.4C84.5023 78.1067 80.129 78.96 74.7956 78.96Z" fill="#AFBCD1"/>
<path d="M101.01 73.0005L110.91 44.7405H115.08L105.18 73.0005H101.01ZM123.332 70.3605C121.612 70.3605 120.072 69.9405 118.712 69.1005C117.352 68.2405 116.282 67.0005 115.502 65.3805C114.722 63.7605 114.332 61.8005 114.332 59.5005C114.332 57.2005 114.722 55.2405 115.502 53.6205C116.282 52.0005 117.352 50.7705 118.712 49.9305C120.072 49.0705 121.612 48.6405 123.332 48.6405C125.072 48.6405 126.612 49.0705 127.952 49.9305C129.312 50.7705 130.382 52.0005 131.162 53.6205C131.942 55.2405 132.332 57.2005 132.332 59.5005C132.332 61.8005 131.942 63.7605 131.162 65.3805C130.382 67.0005 129.312 68.2405 127.952 69.1005C126.612 69.9405 125.072 70.3605 123.332 70.3605ZM123.332 66.2505C124.152 66.2505 124.862 66.0205 125.462 65.5605C126.082 65.1005 126.562 64.3705 126.902 63.3705C127.262 62.3705 127.442 61.0805 127.442 59.5005C127.442 57.9205 127.262 56.6305 126.902 55.6305C126.562 54.6305 126.082 53.9005 125.462 53.4405C124.862 52.9805 124.152 52.7505 123.332 52.7505C122.532 52.7505 121.822 52.9805 121.202 53.4405C120.602 53.9005 120.122 54.6305 119.762 55.6305C119.422 56.6305 119.252 57.9205 119.252 59.5005C119.252 61.0805 119.422 62.3705 119.762 63.3705C120.122 64.3705 120.602 65.1005 121.202 65.5605C121.822 66.0205 122.532 66.2505 123.332 66.2505ZM134.453 65.5905V62.3205L144.353 49.0005H149.453L139.763 62.3205L137.393 61.6305H153.923V65.5905H134.453ZM145.763 70.0005V65.5905L145.913 61.6305V57.7005H150.503V70.0005H145.763Z" fill="#AFBCD1"/>
</svg>
