<svg width="155" height="98" viewBox="0 0 155 98" fill="none" xmlns="http://www.w3.org/2000/svg">
<path d="M27.12 78.96C22.5333 78.96 18.4267 77.84 14.8 75.6C11.1733 73.3067 8.32 70 6.24 65.68C4.16 61.36 3.12 56.1333 3.12 50C3.12 43.8667 4.16 38.64 6.24 34.32C8.32 30 11.1733 26.72 14.8 24.48C18.4267 22.1867 22.5333 21.04 27.12 21.04C31.76 21.04 35.8667 22.1867 39.44 24.48C43.0667 26.72 45.92 30 48 34.32C50.08 38.64 51.12 43.8667 51.12 50C51.12 56.1333 50.08 61.36 48 65.68C45.92 70 43.0667 73.3067 39.44 75.6C35.8667 77.84 31.76 78.96 27.12 78.96ZM27.12 68C29.3067 68 31.2 67.3867 32.8 66.16C34.4533 64.9333 35.7333 62.9867 36.64 60.32C37.6 57.6533 38.08 54.2133 38.08 50C38.08 45.7867 37.6 42.3467 36.64 39.68C35.7333 37.0133 34.4533 35.0667 32.8 33.84C31.2 32.6133 29.3067 32 27.12 32C24.9867 32 23.0933 32.6133 21.44 33.84C19.84 35.0667 18.56 37.0133 17.6 39.68C16.6933 42.3467 16.24 45.7867 16.24 50C16.24 54.2133 16.6933 57.6533 17.6 60.32C18.56 62.9867 19.84 64.9333 21.44 66.16C23.0933 67.3867 24.9867 68 27.12 68ZM56.6244 78V69.6L78.2244 49.2C79.931 47.6533 81.1844 46.2667 81.9844 45.04C82.7844 43.8133 83.3177 42.6933 83.5844 41.68C83.9044 40.6667 84.0644 39.7333 84.0644 38.88C84.0644 36.64 83.291 34.9333 81.7444 33.76C80.251 32.5333 78.0377 31.92 75.1044 31.92C72.7577 31.92 70.571 32.3733 68.5444 33.28C66.571 34.1867 64.891 35.6 63.5044 37.52L54.0644 31.44C56.1977 28.24 59.1844 25.7067 63.0244 23.84C66.8644 21.9733 71.291 21.04 76.3044 21.04C80.4644 21.04 84.091 21.7333 87.1844 23.12C90.331 24.4533 92.7577 26.3467 94.4644 28.8C96.2244 31.2533 97.1044 34.1867 97.1044 37.6C97.1044 39.4133 96.8644 41.2267 96.3844 43.04C95.9577 44.8 95.051 46.6667 93.6644 48.64C92.331 50.6133 90.3577 52.8267 87.7444 55.28L69.8244 72.16L67.3444 67.44H98.9444V78H56.6244Z" fill="#AFBCD1"/>
<path d="M110.91 44.7405H115.08L105.18 73.0005H101.01L110.91 44.7405ZM123.332 70.3605C121.592 70.3605 120.042 69.9305 118.682 69.0705C117.322 68.2105 116.252 66.9705 115.472 65.3505C114.712 63.7105 114.332 61.7605 114.332 59.5005C114.332 57.2405 114.712 55.3005 115.472 53.6805C116.252 52.0405 117.322 50.7905 118.682 49.9305C120.042 49.0705 121.592 48.6405 123.332 48.6405C125.072 48.6405 126.622 49.0705 127.982 49.9305C129.342 50.7905 130.402 52.0405 131.162 53.6805C131.942 55.3005 132.332 57.2405 132.332 59.5005C132.332 61.7605 131.942 63.7105 131.162 65.3505C130.402 66.9705 129.342 68.2105 127.982 69.0705C126.622 69.9305 125.072 70.3605 123.332 70.3605ZM123.332 66.2505C124.612 66.2505 125.612 65.7005 126.332 64.6005C127.072 63.5005 127.442 61.8005 127.442 59.5005C127.442 57.2005 127.072 55.5005 126.332 54.4005C125.612 53.3005 124.612 52.7505 123.332 52.7505C122.072 52.7505 121.072 53.3005 120.332 54.4005C119.612 55.5005 119.252 57.2005 119.252 59.5005C119.252 61.8005 119.612 63.5005 120.332 64.6005C121.072 65.7005 122.072 66.2505 123.332 66.2505ZM153.923 65.5905H150.503V70.0005H145.763V65.5905H134.453V62.3205L144.353 49.0005H149.453L140.273 61.6305H145.913V57.7005H150.503V61.6305H153.923V65.5905Z" fill="#AFBCD1"/>
</svg>
