<svg width="141" height="98" viewBox="0 0 141 98" fill="none" xmlns="http://www.w3.org/2000/svg">
<path d="M27.12 78.96C22.5333 78.96 18.4267 77.84 14.8 75.6C11.1733 73.3067 8.32 70 6.24 65.68C4.16 61.36 3.12 56.1333 3.12 50C3.12 43.8667 4.16 38.64 6.24 34.32C8.32 30 11.1733 26.72 14.8 24.48C18.4267 22.1867 22.5333 21.04 27.12 21.04C31.76 21.04 35.8667 22.1867 39.44 24.48C43.0667 26.72 45.92 30 48 34.32C50.08 38.64 51.12 43.8667 51.12 50C51.12 56.1333 50.08 61.36 48 65.68C45.92 70 43.0667 73.3067 39.44 75.6C35.8667 77.84 31.76 78.96 27.12 78.96ZM27.12 68C29.3067 68 31.2 67.3867 32.8 66.16C34.4533 64.9333 35.7333 62.9867 36.64 60.32C37.6 57.6533 38.08 54.2133 38.08 50C38.08 45.7867 37.6 42.3467 36.64 39.68C35.7333 37.0133 34.4533 35.0667 32.8 33.84C31.2 32.6133 29.3067 32 27.12 32C24.9867 32 23.0933 32.6133 21.44 33.84C19.84 35.0667 18.56 37.0133 17.6 39.68C16.6933 42.3467 16.24 45.7867 16.24 50C16.24 54.2133 16.6933 57.6533 17.6 60.32C18.56 62.9867 19.84 64.9333 21.44 66.16C23.0933 67.3867 24.9867 68 27.12 68ZM65.7444 78V26.8L71.3444 32.4H54.5444V22H78.7044V78H65.7444Z" fill="#AFBCD1"/>
<path d="M96.91 44.7405H101.08L91.18 73.0005H87.01L96.91 44.7405ZM109.332 70.3605C107.592 70.3605 106.042 69.9305 104.682 69.0705C103.322 68.2105 102.252 66.9705 101.472 65.3505C100.712 63.7105 100.332 61.7605 100.332 59.5005C100.332 57.2405 100.712 55.3005 101.472 53.6805C102.252 52.0405 103.322 50.7905 104.682 49.9305C106.042 49.0705 107.592 48.6405 109.332 48.6405C111.072 48.6405 112.622 49.0705 113.982 49.9305C115.342 50.7905 116.402 52.0405 117.162 53.6805C117.942 55.3005 118.332 57.2405 118.332 59.5005C118.332 61.7605 117.942 63.7105 117.162 65.3505C116.402 66.9705 115.342 68.2105 113.982 69.0705C112.622 69.9305 111.072 70.3605 109.332 70.3605ZM109.332 66.2505C110.612 66.2505 111.612 65.7005 112.332 64.6005C113.072 63.5005 113.442 61.8005 113.442 59.5005C113.442 57.2005 113.072 55.5005 112.332 54.4005C111.612 53.3005 110.612 52.7505 109.332 52.7505C108.072 52.7505 107.072 53.3005 106.332 54.4005C105.612 55.5005 105.252 57.2005 105.252 59.5005C105.252 61.8005 105.612 63.5005 106.332 64.6005C107.072 65.7005 108.072 66.2505 109.332 66.2505ZM139.923 65.5905H136.503V70.0005H131.763V65.5905H120.453V62.3205L130.353 49.0005H135.453L126.273 61.6305H131.913V57.7005H136.503V61.6305H139.923V65.5905Z" fill="#AFBCD1"/>
</svg>
