<svg width="168" height="98" viewBox="0 0 168 98" fill="none" xmlns="http://www.w3.org/2000/svg">
<path d="M27.12 78.96C22.5333 78.96 18.4267 77.84 14.8 75.6C11.1733 73.3067 8.32 70 6.24 65.68C4.16 61.36 3.12 56.1333 3.12 50C3.12 43.8667 4.16 38.64 6.24 34.32C8.32 30 11.1733 26.72 14.8 24.48C18.4267 22.1867 22.5333 21.04 27.12 21.04C31.76 21.04 35.8667 22.1867 39.44 24.48C43.0667 26.72 45.92 30 48 34.32C50.08 38.64 51.12 43.8667 51.12 50C51.12 56.1333 50.08 61.36 48 65.68C45.92 70 43.0667 73.3067 39.44 75.6C35.8667 77.84 31.76 78.96 27.12 78.96ZM27.12 68C29.3067 68 31.2 67.3867 32.8 66.16C34.4533 64.9333 35.7333 62.9867 36.64 60.32C37.6 57.6533 38.08 54.2133 38.08 50C38.08 45.7867 37.6 42.3467 36.64 39.68C35.7333 37.0133 34.4533 35.0667 32.8 33.84C31.2 32.6133 29.3067 32 27.12 32C24.9867 32 23.0933 32.6133 21.44 33.84C19.84 35.0667 18.56 37.0133 17.6 39.68C16.6933 42.3467 16.24 45.7867 16.24 50C16.24 54.2133 16.6933 57.6533 17.6 60.32C18.56 62.9867 19.84 64.9333 21.44 66.16C23.0933 67.3867 24.9867 68 27.12 68ZM56.7769 66.24V57.52L83.1769 22H96.7769L70.9369 57.52L64.6169 55.68H108.697V66.24H56.7769ZM86.9369 78V66.24L87.3369 55.68V45.2H99.5769V78H86.9369Z" fill="#AFBCD1"/>
<path d="M114.01 73.0005L123.91 44.7405H128.08L118.18 73.0005H114.01ZM136.332 70.3605C134.612 70.3605 133.072 69.9405 131.712 69.1005C130.352 68.2405 129.282 67.0005 128.502 65.3805C127.722 63.7605 127.332 61.8005 127.332 59.5005C127.332 57.2005 127.722 55.2405 128.502 53.6205C129.282 52.0005 130.352 50.7705 131.712 49.9305C133.072 49.0705 134.612 48.6405 136.332 48.6405C138.072 48.6405 139.612 49.0705 140.952 49.9305C142.312 50.7705 143.382 52.0005 144.162 53.6205C144.942 55.2405 145.332 57.2005 145.332 59.5005C145.332 61.8005 144.942 63.7605 144.162 65.3805C143.382 67.0005 142.312 68.2405 140.952 69.1005C139.612 69.9405 138.072 70.3605 136.332 70.3605ZM136.332 66.2505C137.152 66.2505 137.862 66.0205 138.462 65.5605C139.082 65.1005 139.562 64.3705 139.902 63.3705C140.262 62.3705 140.442 61.0805 140.442 59.5005C140.442 57.9205 140.262 56.6305 139.902 55.6305C139.562 54.6305 139.082 53.9005 138.462 53.4405C137.862 52.9805 137.152 52.7505 136.332 52.7505C135.532 52.7505 134.822 52.9805 134.202 53.4405C133.602 53.9005 133.122 54.6305 132.762 55.6305C132.422 56.6305 132.252 57.9205 132.252 59.5005C132.252 61.0805 132.422 62.3705 132.762 63.3705C133.122 64.3705 133.602 65.1005 134.202 65.5605C134.822 66.0205 135.532 66.2505 136.332 66.2505ZM147.453 65.5905V62.3205L157.353 49.0005H162.453L152.763 62.3205L150.393 61.6305H166.923V65.5905H147.453ZM158.763 70.0005V65.5905L158.913 61.6305V57.7005H163.503V70.0005H158.763Z" fill="#AFBCD1"/>
</svg>
